# xmcd CD database file
#
# Track frame offsets:
#	150
#	9883
#	26104
#	43347
#	61702
#	75307
#	93205
#	108577
#	122031
#	139263
#	153991
#	178962
#	195107
#	210402
#	221612
#	234844
#	247315
#	260071
#	275296
#	289434
#	305663
#	321756
#	340310
#
# Disc length: 4662 seconds
#
# Revision: 0
# Processed by: cddbd v1.5.1PL0 Copyright (c) Steve Scherf et al.
# Submitted via: CDex 1.50
#
DISCID=4d123417
DTITLE=Gino and Geno - Ao Vivo
DYEAR=2004
DGENRE=Country
TTITLE0=Abertura
TTITLE1=Ela Chorou De Amor
TTITLE2=Vou Beber Veneno
TTITLE3=Coração Cigano
TTITLE4=Nóis Enverga Mais Não Quebra
TTITLE5=As Águas Do São Francisco
TTITLE6=O Que Eu Tô Fazendo Aqui
TTITLE7=Cabelo De Samambaia
TTITLE8=Mulher Que Não Dá Voa
TTITLE9=Blusa Amarela
TTITLE10=Paixão Mineira
TTITLE11=Troféu De Dor
TTITLE12=Telefone No Ar
TTITLE13=Vou Gastar O Barão
TTITLE14=Morena De 14 Anos
TTITLE15=Xonado Sem Quantia
TTITLE16=Foi Uma Noite Só
TTITLE17=Só Você
TTITLE18=Cara De Boi
TTITLE19=Bate A Bota No Chão
TTITLE20=Pinga Na Garganta
TTITLE21=Apaixonado Por Você
TTITLE22=Encerramento
EXTD=YEAR: 2004
EXTT0=
EXTT1=
EXTT2=
EXTT3=
EXTT4=
EXTT5=
EXTT6=
EXTT7=
EXTT8=
EXTT9=
EXTT10=
EXTT11=
EXTT12=
EXTT13=
EXTT14=
EXTT15=
EXTT16=
EXTT17=
EXTT18=
EXTT19=
EXTT20=
EXTT21=
EXTT22=
PLAYORDER=
